<?xml version="1.0" encoding="utf-8"?>
<!-- Generator: Adobe Adobe Illustrator 24.2.0, SVG Export Plug-In . SVG Version: 6.00 Build 0)  -->
<svg version="1.1" id="Layer_4" xmlns="http://www.w3.org/2000/svg" xmlns:xlink="http://www.w3.org/1999/xlink" x="0px" y="0px"
	 width="358px" height="505px" viewBox="0 0 358 505" style="enable-background:new 0 0 358 505;" xml:space="preserve">
<style type="text/css">
	.st0{font-family:'Raleway-ExtraBold';}
	.st1{font-size:18.3904px;stroke:#4E5454;fill:#4E5454;}
	.st2{fill:none;stroke:#4E5454;stroke-miterlimit:10;}
	.st3{stroke:#4E5454;stroke-miterlimit:10;}
	.st4{fill:#FFFFFF;stroke:#4E5454;stroke-miterlimit:10;}
	.st5{fill:none;stroke:#4E5454;stroke-width:2;stroke-miterlimit:10;}
	.st6{fill:#FFFFFF;stroke:#4E5454;stroke-linecap:round;stroke-miterlimit:10;}
	.st7{fill:#FFFFFF;stroke:#4E5454;stroke-linecap:round;stroke-linejoin:bevel;stroke-miterlimit:10;}
	.st8{fill:none;stroke:#4E5454;stroke-linecap:round;stroke-miterlimit:10;}
	.st9{font-family:'AreaInktrap-ExtraBold';stroke:#4E5454;fill:#4E5454;}
	.st10{font-size:8.2341px;}
	.st11{font-size:7.8447px;}
	.st12{font-size:7.3548px;}
	.st13{font-size:7px;}
	.st14{fill:none;}
	.st15{font-size:18px;}
	.st16{font-size:4.7807px;}
	.st17{font-size:4.3631px;}
	.st18{font-size:4.2358px;}
	.st19{font-size:4.32px;}
	.st20{font-family:'InterFace-XBold';stroke:#4E5454;fill:#4E5454;}
	.st21{font-size:16.0709px;}
	.st22{fill:none;stroke:#4E5454;stroke-width:0.5;stroke-miterlimit:10;}
	.st23{font-family:'AktivGrotesk-SemiBold';stroke:#4E5454;fill:#4E5454;}
	.st24{font-size:27.816px;}
</style>
<g id="Layer_3">
	<text transform="matrix(0 1 -1 0 194.4961 138.8267)" class="st0 st1">RidesIQ</text>
	<polyline class="st2" points="139.9,138.76 186.73,138.76 186.54,154.48 181.18,154.48 	"/>
	<path class="st2" d="M145.38,154.51h-5.48v-15.74c1.83,0,3.65,0,5.48,0"/>
	<line class="st2" x1="179.33" y1="154.48" x2="169.76" y2="154.48"/>
	<line class="st2" x1="167.78" y1="154.48" x2="158.37" y2="154.48"/>
	<line class="st2" x1="156.39" y1="154.48" x2="146.77" y2="154.48"/>
	<polygon class="st2" points="142.38,141.82 142.38,151.23 146.07,151.23 149.71,151.23 149.71,141.82 	"/>
	<line class="st2" x1="146.07" y1="160.64" x2="146.07" y2="151.23"/>
	<polygon class="st2" points="153.66,151.23 157.25,151.23 161.04,151.23 161.04,141.82 153.66,141.82 	"/>
	<line class="st2" x1="157.35" y1="161.12" x2="157.35" y2="151.23"/>
	<polygon class="st2" points="165,141.82 172.6,141.82 172.33,151.23 165,151.23 	"/>
	<line class="st2" x1="168.96" y1="161.12" x2="168.96" y2="151.23"/>
	<rect x="176.45" y="141.82" class="st2" width="7.54" height="9.41"/>
	<line class="st2" x1="180.22" y1="161.12" x2="180.22" y2="151.23"/>
	<polyline class="st2" points="145.27,282.51 145.27,289.06 141.03,291.66 	"/>
	<polyline class="st2" points="140.83,304.17 145.27,307.11 145.27,313.31 	"/>
	<line class="st2" x1="194.74" y1="359.8" x2="194.74" y2="369.11"/>
	<line class="st2" x1="196.44" y1="361.47" x2="207.74" y2="361.47"/>
	<line class="st2" x1="196.44" y1="367.44" x2="207.39" y2="367.44"/>
	<polygon class="st3" points="208.04,367.44 205.76,366.12 205.76,368.77 	"/>
	<polygon class="st3" points="207.94,361.59 205.66,360.27 205.66,362.92 	"/>
	<ellipse class="st3" cx="168.94" cy="161.8" rx="0.82" ry="0.85"/>
	<circle class="st3" cx="157.35" cy="161.81" r="0.8"/>
	<circle class="st3" cx="146.07" cy="161.86" r="0.95"/>
	<ellipse class="st3" cx="180.22" cy="161.83" rx="0.73" ry="0.75"/>
	<ellipse class="st3" cx="140.03" cy="292.32" rx="1" ry="1.02"/>
	<circle class="st3" cx="139.79" cy="303.6" r="1.04"/>
	<circle class="st4" cx="192.24" cy="102.25" r="0.44"/>
	<circle class="st4" cx="196.47" cy="101.6" r="0.44"/>
	<circle class="st4" cx="201.32" cy="102.18" r="0.38"/>
	<circle class="st4" cx="204.45" cy="102.56" r="0.29"/>
	<circle class="st4" cx="211.93" cy="109.45" r="0.2"/>
	<circle class="st4" cx="207.31" cy="105.11" r="0.14"/>
	<circle class="st4" cx="209.12" cy="127.53" r="0.35"/>
	<circle class="st4" cx="191.45" cy="106.39" r="0.22"/>
	<circle class="st4" cx="190" cy="121.05" r="0.14"/>
	<circle class="st4" cx="191.46" cy="123.81" r="0.25"/>
	<circle class="st4" cx="198.99" cy="128.23" r="0.17"/>
	<circle class="st4" cx="201.8" cy="128.23" r="0.35"/>
	<circle class="st4" cx="210.13" cy="124" r="0.19"/>
	<circle class="st4" cx="207.33" cy="115.19" r="0.3"/>
	<circle class="st2" cx="194.77" cy="115.54" r="0.3"/>
	<ellipse class="st5" cx="200.98" cy="115.35" rx="9.54" ry="9.18"/>
	<circle class="st4" cx="205.4" cy="129.06" r="0.47"/>
	<line class="st6" x1="195.41" y1="116.81" x2="197.68" y2="121.49"/>
	<line class="st7" x1="195.41" y1="112.36" x2="200.12" y2="121.96"/>
	<path class="st6" d="M192.52,102.85l12.75,25.74L192.52,102.85z"/>
	<line class="st6" x1="194.51" y1="102.27" x2="206.53" y2="127.18"/>
	<line class="st6" x1="196.47" y1="101.6" x2="208.95" y2="127.53"/>
	<line class="st6" x1="201.69" y1="108.11" x2="206.5" y2="117.92"/>
	<line class="st6" x1="204.31" y1="109.25" x2="206.5" y2="113.79"/>
	<path class="st8" d="M206.7,100.59c5.27,0.61,5.08,5.02,5.08,5.02"/>
	<path class="st8" d="M206.66,102.04c3.53,0,3.77,3.63,3.77,3.63"/>
	<path class="st8" d="M206.7,103.45c2.31,0,2.45,2.11,2.45,2.11"/>
	<circle class="st4" cx="195.73" cy="125.54" r="0.14"/>
	<path class="st8" d="M196.47,129.97c-5.27-0.61-5.21-3.92-5.21-3.92"/>
	<path class="st8" d="M196.47,128.52c-3.53,0-3.91-2.73-3.91-2.73"/>
	<path class="st8" d="M196.29,127.16c-1.96,0.19-2.45-1.41-2.45-1.41"/>
	<text transform="matrix(0 1 -1 0 176.974 165.7715)" class="st9 st10">IN</text>
	<text transform="matrix(0 1 -1 0 165.5351 165.5945)" class="st9 st11">OUT</text>
	<text transform="matrix(0 1 -1 0 154.9976 165.9009)" class="st9 st12">GND</text>
	<text transform="matrix(0 1 -1 0 143.56 165.9)"><tspan x="0" y="0" class="st9 st12">DC </tspan><tspan x="13.72" y="0" class="st9 st13">(9-1.00V)</tspan></text>
	<text transform="matrix(0 1 -1 0 176.8929 239.2711)" class="st9 st12">GPS/BDS/QZSS</text>
	<text transform="matrix(0 1 -1 0 166.0087 239.5652)" class="st9 st12">LTE/GNESS TERMNAL</text>
	<text transform="matrix(0 1 -1 0 155.0173 239.5649)"><tspan x="0" y="0" class="st9 st12">POWER SUPPLY:</tspan><tspan x="63.48" y="0" class="st9 st13">9-100V</tspan></text>
	<text transform="matrix(0 1 -1 0 143.1621 238.5277)" class="st9 st12">NETWORK</text>
	<text transform="matrix(0 1 -1 0 142.3619 316.9472)" class="st9 st12">GNSS</text>
	<rect x="194.3" y="176.3" class="st14" width="9.1" height="54.91"/>
	<text transform="matrix(0 1 -1 0 193.5835 240.1679)"><tspan x="0" y="0" class="st9 st1">IQ</tspan><tspan x="21.99" y="0" class="st9 st15">120</tspan></text>
	<text transform="matrix(0 1 -1 0 178.4897 145.6328)" class="st9 st16">1</text>
	<text transform="matrix(0 1 -1 0 167.1314 145.2305)" class="st9 st17">2</text>
	<text transform="matrix(0 1 -1 0 155.8315 145.2309)" class="st9 st18">3</text>
	<text transform="matrix(0 1 -1 0 144.1636 145.084)" class="st9 st19">4</text>
	<text transform="matrix(0 1 -1 0 203.1636 371.8907)" class="st9 st12">MOUNT</text>
	<text transform="matrix(0 1 -1 0 194.3285 371.8905)" class="st9 st12">THIS SIDE UP</text>
	<text transform="matrix(0 1 -1 0 154.7599 406.9348)" class="st20 st21">4G</text>
	<path class="st2" d="M140.84,410.17c0-1.1,0.89-2.87,1.6-3.36c2.1-1.45,4.06-1.05,5.27,0.51c0.84,1.09,0.82,2.75,0.82,2.75"/>
	<path class="st2" d="M140.84,416.27c0-1.1,0.89-2.87,1.6-3.36c2.1-1.45,4.06-1.05,5.27,0.51c0.84,1.09,0.82,2.75,0.82,2.75"/>
	<line class="st2" x1="144.74" y1="412.01" x2="144.78" y2="415.75"/>
	<line class="st5" x1="140.84" y1="422.17" x2="140.92" y2="427.98"/>
	<polyline class="st22" points="143.69,425.53 143.69,423.58 149.21,423.36 149.21,426.32 144.52,426.32 	"/>
	<circle class="st22" cx="144.03" cy="426.13" r="0.61"/>
	<polyline class="st22" points="149.26,423.3 149.91,423.84 149.91,425.86 149.34,426.34 	"/>
	<line class="st22" x1="150.57" y1="420.99" x2="142.74" y2="428.09"/>
</g>
<g id="Layer_2">
	<path class="st5" d="M157.91,37.77c0,0,14.93-9.52,34.46-0.96"/>
	<polygon class="st2" points="124.66,69.13 113.42,69.2 105.73,76.62 105.82,92.08 108.4,94.06 108.75,107.72 106.06,110.75 
		106.28,129.87 103.48,132.7 103.31,142.52 106,144.56 103.62,147.96 103.17,157.94 106.17,160.21 103.64,163.69 103.33,173.32 
		106.37,176.37 107.11,254.1 103.9,258.01 103.71,267.76 107.16,270.94 107.63,351.97 104.56,355.5 104.89,364.61 107.61,367.4 
		105.15,369.78 105,379.75 108.18,382.27 105.18,385.45 105.36,394.92 108.39,398.33 108.32,416.71 109.66,418.65 111.21,420.91 
		111.24,433.04 109.94,434.82 108.71,436.52 108.9,450.08 116.85,457.4 127.19,457.26 129.65,455.44 144.29,455.83 145.87,457.3 
		167.64,457.61 168.77,456.1 185.03,455.84 186.5,457.29 207.89,456.93 209.61,455.38 225.09,455.43 226.38,456.76 234.73,456.41 
		241.81,449.37 241.83,434.52 239.13,432.28 239.11,418.8 241.84,416.02 241.75,397.75 245.09,394.04 245.08,384.14 242.04,381.82 
		244.92,379.25 245.25,368.77 242.04,366.42 245.11,364.41 245.35,354.16 241.52,351.41 241.79,270.35 244.84,266.99 244.97,257.3 
		241.69,253.77 241.72,176.12 244.8,173.57 244.8,163.3 242.44,160.33 244.87,157.88 244.65,147.62 242.18,144.72 244.76,142.77 
		244.71,132.75 241.31,128.27 241.47,109.89 238.25,106.36 238.46,92.81 241.15,90.5 241.38,76.44 233.31,68.63 224.84,68.54 
		222.83,70.89 209.04,70.95 206.61,68.57 144.12,68.88 142.51,70.72 126.03,70.69 	"/>
	<polyline class="st2" points="108.31,398.75 119.76,390.57 121.19,380.51 114.89,378.25 108.01,382.27 119.76,374.84 
		121.19,366.07 114.89,363.53 107.61,367.42 119.76,360.48 121.19,350.59 114.89,347.49 107.96,351.66 107.16,271.1 118.12,263.18 
		120.19,252.5 114.1,249 107.51,253.77 106.37,176.37 119.33,165.17 120.19,155.92 112.95,154.42 105.91,160.23 119.33,149.05 
		120.19,140.45 112.95,138.7 106.11,144.32 119.33,133.55 120.19,126 113.45,123.3 106.2,129.97 	"/>
	<path class="st2" d="M240.82,90.93l-0.46,17.75L240.82,90.93z"/>
	<polyline class="st2" points="241.75,397.75 231.29,389.57 229.86,380.76 236.16,377.6 242.04,381.82 231.29,373.84 229.86,365.57 
		236.16,362.63 242.04,366.42 231.29,359.48 229.86,349.59 236.16,347.44 241.75,351.41 241.79,270.35 231.93,262.18 229.86,250.07 
		235.95,248 241.79,253.77 241.72,176.12 230.72,164.17 229.86,153.42 235.9,153.47 242.44,160.33 230.72,148.05 229.86,138.95 
		236.45,138.65 242.29,144.87 230.72,132.55 229.86,122.75 236.6,122.3 241.31,128.27 	"/>
	<line class="st2" x1="241.05" y1="416.83" x2="241.05" y2="433.87"/>
	<line class="st2" x1="109.47" y1="418.34" x2="109.4" y2="435.57"/>
	<line class="st2" x1="106.72" y1="92.75" x2="106.8" y2="109.71"/>
	<line class="st2" x1="191.91" y1="32.17" x2="196.49" y2="68.45"/>
	<path class="st2" d="M155.14,68.83l2.9-34.7c0,0,13.69-13.71,34.14-1.56"/>
	<polygon class="st2" points="131.3,85.21 144.03,85.21 148.78,89.15 200.4,89.15 203.75,85.21 218.1,85.21 224.56,91.78 
		224.56,104.31 220.22,109.26 221.93,417.49 225.47,422.19 225.47,435.57 219.31,441.99 205.97,441.99 201.12,437.75 151.61,437.75 
		146.86,441.99 134.33,441.99 126.96,435.57 126.96,422.19 130.45,417.49 128.07,109.26 124.33,104.31 124.33,91.78 	"/>
	<polygon class="st2" points="152.41,80.16 159.39,72.28 189,72.28 196.27,80.16 	"/>
	<polygon class="st2" points="124.33,80.16 120.19,83.7 122.51,441.99 126.25,445.94 226.18,445.94 229.82,441.99 228.4,83.7 
		224.97,80.16 196.27,80.16 152.41,80.16 	"/>
	<polygon class="st2" points="135.74,92.69 213.45,92.69 216.58,95.31 217.8,430.88 214.97,434.62 138.17,434.62 134.74,430.88 
		132.2,95.31 	"/>
	<rect x="142.8" y="56.81" class="st14" width="3.89" height="4.94"/>
	<path class="st5" d="M175.64,43.57c0,0,10.57-0.45,17.9,4.3"/>
	<path class="st5" d="M155.9,59.7c0,0,17.34-11.23,39.43-0.68"/>
	<path class="st5" d="M155.39,68.13c0,0,21.29-8.71,40.68,0"/>
	<path class="st5" d="M156.99,47.96c0,0,4.39-3.04,11.31-3.92"/>
	<path d="M158.23,38.07c-0.01,0-0.01,0-0.02,0c-0.03-0.12-0.11-0.22-0.27-0.21c-0.33-0.01-0.36,0.41-0.13,0.54
		c-0.18,0.16-0.12,0.54,0.19,0.54c0.18,0,0.28-0.13,0.29-0.27C158.62,38.62,158.61,38.07,158.23,38.07z"/>
	<path d="M157.29,48.38c-0.39-0.01-0.39,0.61,0,0.6C157.68,48.99,157.68,48.38,157.29,48.38z"/>
	<path d="M156.18,60.22c-0.39-0.01-0.39,0.61,0,0.6C156.57,60.83,156.57,60.21,156.18,60.22z"/>
	<path d="M192.18,37.04c-0.24,0-0.33,0.23-0.28,0.4c-0.05,0.18,0.04,0.41,0.28,0.4c0.24,0,0.33-0.23,0.28-0.4
		C192.51,37.27,192.42,37.04,192.18,37.04z"/>
	<g>
		<path d="M193.86,49.27c-0.08-0.09-0.16-0.17-0.24-0.24c0,0,0-0.01,0-0.01c0,0,0.01,0,0.01,0c0.03,0.02,0.05,0.05,0.09,0.07
			c0.02,0.03,0.06,0.05,0.1,0.07c-0.06-0.03-0.08-0.1-0.14-0.13c0,0-0.01-0.01-0.01-0.01c0.03-0.01,0.05-0.01,0.08-0.02
			c0.01,0,0.02,0.01,0.02,0.02c-0.01-0.01-0.01-0.01-0.02-0.02c0.24-0.12,0.2-0.58-0.14-0.57c-0.02,0-0.03,0.01-0.05,0.01
			c0-0.01-0.01-0.02-0.01-0.03c0.19-0.15,0.13-0.54-0.18-0.54c-0.2,0-0.29,0.16-0.28,0.32c-0.08,0.05-0.12,0.14-0.13,0.23
			c0-0.01-0.01-0.01-0.02-0.01c0,0.01,0.01,0.01,0.01,0.02c-0.01,0.1,0.03,0.21,0.12,0.27c0.01,0.01,0.03,0.01,0.04,0.02
			c-0.01,0.01-0.01,0.02-0.02,0.03c-0.05-0.04-0.11-0.09-0.15-0.13c0.04,0.05,0.09,0.1,0.13,0.15c0,0,0,0,0,0
			c-0.02,0.05,0.05,0.1,0.07,0.1c0.02,0.01,0.07,0.06,0.1,0.1c0.17,0.2,0.34,0.39,0.46,0.54c0,0,0.01,0.01,0.01,0.01
			c0.01,0,0.01,0,0.02,0c0.03,0.02,0.05,0.02,0.08,0.01c0.01-0.01,0.02-0.02,0.02-0.03c0.01-0.02,0.01-0.03,0.01-0.05
			c-0.01-0.07-0.06-0.17-0.11-0.22c-0.01-0.03-0.04-0.05-0.06-0.08c0-0.01,0-0.02-0.01-0.03C193.73,49.16,193.8,49.21,193.86,49.27z
			"/>
		<path d="M193.81,49.14c0.01,0.01,0.03,0.01,0.03,0.02C193.83,49.16,193.82,49.15,193.81,49.14
			C193.81,49.14,193.81,49.14,193.81,49.14z"/>
	</g>
</g>
<text transform="matrix(0 1 -1 0 38.2616 135.2014)" class="st23 st24">Size 4in x 1in x 1in</text>
</svg>
